<svg xmlns="http://www.w3.org/2000/svg" width="150" height="62" viewBox="0 0 150 62" fill="none"><path fill-rule="evenodd" clip-rule="evenodd" d="M58.7911 24.8305H37.9679L31.4291 4.75175L24.9043 24.8305H4.08301L20.9113 37.1115L14.3665 57.2483L31.4371 44.7711L48.5076 57.2483L41.9348 37.0234L58.7931 24.8285L58.7911 24.8305Z" fill="white"></path><path fill-rule="evenodd" clip-rule="evenodd" d="M54.3559 35.5964V47.2649H57.0959V40.57C57.0959 39.6433 57.278 38.9448 57.6543 38.4765C58.0245 38.0061 58.695 37.768 59.6638 37.768C60.6325 37.768 61.1468 37.9501 61.345 38.3144C61.5431 38.6786 61.6572 39.2571 61.6872 40.0496V47.2649H64.4993V40.498C64.4993 39.4032 64.6974 38.6906 65.1037 38.3504C65.51 38.0121 65.9604 37.824 66.4467 37.794C66.5628 37.778 66.6829 37.768 66.801 37.768H67.1312C68.0579 37.768 68.6363 37.9661 68.8645 38.3504C69.0927 38.7427 69.2067 39.3311 69.2067 40.1217V47.2649H72.0188V39.5453C72.0188 38.1162 71.6966 37.0855 71.0601 36.449C70.4196 35.8145 69.3769 35.4963 67.9418 35.4963C67.1292 35.4963 66.3947 35.6384 65.7482 35.9086C65.1017 36.1788 64.6114 36.7212 64.2851 37.5238L64.2071 37.5438C64.041 36.7932 63.6667 36.2769 63.0763 35.9967C62.4878 35.7145 61.8634 35.5603 61.2009 35.5223C61.0968 35.5063 60.9967 35.4943 60.8987 35.4943H60.6004C59.8199 35.4943 59.1334 35.6204 58.5449 35.8646C57.9565 36.1127 57.4561 36.5851 57.0438 37.2696L57.0178 35.5924H54.3499L54.3559 35.5964ZM86.1612 35.5964V47.2669H88.9012V40.572C88.9012 39.6453 89.0833 38.9468 89.4576 38.4785C89.8299 38.0081 90.5004 37.77 91.4691 37.77C92.4378 37.77 92.9542 37.9521 93.1523 38.3164C93.3485 38.6806 93.4645 39.2591 93.4966 40.0516V47.2669H96.3086V40.498C96.3086 39.4032 96.5068 38.6906 96.9131 38.3504C97.3194 38.0121 97.7657 37.824 98.2561 37.794C98.3701 37.778 98.4902 37.768 98.6103 37.768H98.9385C99.8672 37.768 100.444 37.9661 100.674 38.3504C100.904 38.7427 101.016 39.3311 101.016 40.1217V47.2649H103.828V39.5453C103.828 38.1162 103.506 37.0855 102.869 36.449C102.229 35.8145 101.188 35.4963 99.7512 35.4963C98.9366 35.4963 98.204 35.6384 97.5575 35.9086C96.9111 36.1788 96.4207 36.7212 96.0945 37.5238L96.0164 37.5438C95.8483 36.7932 95.476 36.2769 94.8876 35.9967C94.2991 35.7145 93.6727 35.5583 93.0122 35.5223C92.9081 35.5063 92.8081 35.4943 92.71 35.4943H92.4138C91.6332 35.4943 90.9447 35.6204 90.3563 35.8646C89.7678 36.1127 89.2655 36.5851 88.8552 37.2696L88.8311 35.5924H86.1632L86.1612 35.5964ZM76.5101 43.5882V43.328C76.5241 43.1419 76.5621 43.1099 76.6202 42.9438C76.6782 42.7776 76.7763 42.6375 76.9124 42.5134C77.0725 42.3773 77.2607 42.2773 77.4808 42.2172C77.697 42.1552 77.9111 42.1192 78.1313 42.0971C78.2634 42.0811 78.3915 42.0691 78.5276 42.0691H79.3922C79.5623 42.0691 79.7405 42.0811 79.9266 42.0971C80.1788 42.1332 80.421 42.1852 80.6631 42.2533C80.9013 42.3253 81.1055 42.4294 81.2736 42.5655C81.3877 42.6696 81.4697 42.8057 81.5238 42.9618C81.5698 43.1179 81.6018 43.1219 81.6239 43.278C81.6379 43.3501 81.6479 43.4221 81.6479 43.5002V43.7183C81.6479 44.4689 81.4037 44.9532 80.9233 45.1714C80.439 45.3916 79.9066 45.5156 79.3302 45.5477H78.8318C78.0652 45.5477 77.4868 45.4476 77.0965 45.2514C76.7083 45.0553 76.5161 44.5009 76.5141 43.5902L76.5101 43.5882ZM76.9684 39.2651V38.8748C76.9845 38.7487 76.9985 38.6146 77.0145 38.4725C77.0305 38.3364 77.0685 38.2123 77.1206 38.0962C77.2346 37.88 77.3968 37.7179 77.6149 37.6138C77.8291 37.5098 78.0572 37.4417 78.3074 37.3997C78.4535 37.3857 78.5996 37.3737 78.7397 37.3737H79.13C80.0667 37.3737 80.7192 37.5358 81.0735 37.848C81.4277 38.1663 81.6098 38.8267 81.6098 39.8275L81.5938 40.3999H78.2234V40.4059H78.0632C76.7183 40.4059 75.6655 40.6501 74.8969 41.1364C74.1244 41.6268 73.7461 42.5995 73.7461 44.0586C73.7461 45.4376 74.1404 46.1921 74.933 46.6305C75.7235 47.0668 76.6982 47.2569 77.9271 47.2569H84.3198V38.4685C84.1337 37.3116 83.6594 36.5691 82.8948 36.2428C81.8861 35.8165 80.5871 35.5964 79.0039 35.5964C77.6449 35.5964 76.5001 35.7725 75.5674 36.1268C74.6307 36.481 74.1664 37.5238 74.1664 39.2631H76.9684V39.2651Z" fill="white"></path><path fill-rule="evenodd" clip-rule="evenodd" d="M108.468 35.5964H105.728V47.2669H108.468V35.5964ZM110.449 35.5964V47.2669H113.189V40.3839C113.189 39.4992 113.423 38.8367 113.9 38.4104C114.374 37.9821 115.034 37.768 115.889 37.768C116.838 37.768 117.43 37.9561 117.676 38.3264C117.92 38.6966 118.047 39.3071 118.047 40.1597V47.2669H120.787V39.3211C120.787 37.858 120.454 36.8473 119.786 36.2889C119.119 35.7305 118.093 35.4503 116.702 35.4503C115.849 35.4503 115.138 35.5964 114.582 35.8826C114.024 36.1748 113.525 36.6692 113.083 37.3717L113.063 35.5964H110.453H110.449ZM128.168 35.5964H125.356V34.5436C125.356 33.9712 125.446 33.5489 125.626 33.2827C125.802 33.0225 126.056 32.8664 126.683 32.8143C126.765 32.8023 127.96 32.8243 128.096 32.8383V30.9269H127.954C127.912 30.9269 127.876 30.9209 127.846 30.9009H127.576C127.309 30.9009 127.023 30.9069 126.721 30.9169C126.421 30.9269 126.114 30.941 125.8 30.975C125.29 31.025 124.79 31.1351 124.305 31.3072C123.823 31.4854 123.431 31.7656 123.134 32.1598C122.986 32.338 122.872 32.5501 122.79 32.7903C122.706 33.0345 122.652 33.2867 122.638 33.5349C122.622 33.697 122.614 33.8571 122.602 34.0192C122.592 34.1873 122.592 34.3314 122.592 34.4635V47.2629H125.356V37.6419H128.168V35.5944V35.5964ZM132.675 41.2745V40.8022C132.675 40.6501 132.681 40.494 132.701 40.3338C132.701 40.1857 132.707 40.0396 132.727 39.8835L132.773 39.4112C132.773 39.3631 132.773 39.3151 132.785 39.2651C132.795 39.217 132.807 39.171 132.827 39.1189C132.877 38.9428 132.941 38.7647 133.02 38.5906C133.092 38.4124 133.206 38.2603 133.356 38.1302C133.492 38.0041 133.664 37.9101 133.878 37.854C134.086 37.796 134.304 37.764 134.525 37.764C134.607 37.7539 134.697 37.7459 134.789 37.7459C134.881 37.7459 134.973 37.7399 135.061 37.7199H136.02C136.104 37.7199 136.196 37.7299 136.302 37.7459C136.536 37.7459 136.758 37.782 136.974 37.846C137.183 37.9061 137.365 38.0101 137.521 38.1582C137.707 38.3384 137.837 38.5846 137.911 38.8908C137.983 39.197 138.041 39.5212 138.077 39.8615C138.093 40.0596 138.103 40.2458 138.103 40.4139V42.2893C138.103 42.4594 138.091 42.6275 138.077 42.7836C138.055 43.1419 138.015 43.4862 137.947 43.8084C137.879 44.1326 137.765 44.4088 137.599 44.637C137.443 44.8351 137.245 44.9692 136.998 45.0533C136.754 45.1374 136.506 45.1894 136.254 45.2194C136.098 45.2374 135.952 45.2394 135.806 45.2394C135.659 45.2394 135.529 45.2354 135.415 45.2194H135.087C133.886 45.2194 133.182 44.9292 132.978 44.3388C132.773 43.7503 132.675 42.9818 132.675 42.0271V41.2765V41.2745ZM129.863 40.9403V42.0671C129.863 44.2507 130.324 45.6637 131.238 46.3022C132.155 46.9487 133.644 47.2669 135.712 47.2669C138.189 47.2669 139.668 46.7365 140.149 45.6678C140.623 44.605 140.861 43.0598 140.861 41.0404C140.861 38.8107 140.467 37.3477 139.686 36.6491C138.906 35.9506 137.403 35.5984 135.187 35.5984C132.972 35.5984 131.657 35.9827 130.936 36.7492C130.217 37.5138 129.863 38.9108 129.863 40.9423V40.9403Z" fill="white"></path><path fill-rule="evenodd" clip-rule="evenodd" d="M46.328 54.2961L31.3751 43.3661L16.4221 54.2961L22.1543 36.6552L28.2468 34.6057L26.2914 40.6221L31.3751 36.8773L36.4348 40.6L46.328 54.2961Z" fill="#BDBCBC"></path><path fill-rule="evenodd" clip-rule="evenodd" d="M46.3281 54.2961L36.4348 40.6L34.5014 34.5996L39.5231 30.969H33.3206L37.0973 25.8973H55.3367L40.5699 36.5791L46.3281 54.2961Z" fill="#D0D0D0"></path><path fill-rule="evenodd" clip-rule="evenodd" d="M25.6528 25.8973L31.369 8.31036L37.0972 25.8973L33.3205 30.969L31.369 25.0006L29.4296 30.969L25.6528 25.8973Z" fill="#1961AC"></path><path fill-rule="evenodd" clip-rule="evenodd" d="M22.1541 36.6552L7.41333 25.8973H25.6527L29.4295 30.969H23.2269L28.2466 34.6056L22.1541 36.6552Z" fill="#002647"></path><path d="M145.919 32.5121C145.919 34.2634 144.544 35.6384 142.757 35.6384C140.969 35.6384 139.574 34.2634 139.574 32.5121C139.574 30.7608 140.988 29.4238 142.757 29.4238C144.526 29.4238 145.919 30.7989 145.919 32.5121ZM140.363 32.5121C140.363 33.8871 141.38 34.9799 142.773 34.9799C144.166 34.9799 145.127 33.8871 145.127 32.5321C145.127 31.1771 144.128 30.0463 142.755 30.0463C141.382 30.0463 140.363 31.1571 140.363 32.5121ZM142.264 34.1333H141.55V31.045C141.832 30.989 142.228 30.951 142.737 30.951C143.321 30.951 143.583 31.045 143.81 31.1771C143.98 31.3092 144.112 31.5534 144.112 31.8556C144.112 32.1939 143.848 32.4581 143.471 32.5722V32.6102C143.774 32.7243 143.942 32.9484 144.036 33.3627C144.13 33.8331 144.186 34.0212 144.262 34.1353H143.489C143.395 34.0212 143.339 33.739 143.245 33.3827C143.189 33.0445 143.001 32.8924 142.605 32.8924H142.266V34.1353L142.264 34.1333ZM142.284 32.382H142.623C143.019 32.382 143.337 32.2499 143.337 31.9297C143.337 31.6475 143.131 31.4593 142.679 31.4593C142.491 31.4593 142.359 31.4773 142.282 31.4974V32.382H142.284Z" fill="#BDBCBC"></path><path d="M86.2234 54.0059C86.2234 54.138 86.1793 54.244 86.0933 54.3241C86.0072 54.4042 85.8911 54.4442 85.749 54.4442H82.9009C82.955 54.7004 83.055 54.8985 83.2051 55.0346C83.3973 55.2548 83.6755 55.3889 84.0418 55.4329C84.41 55.4769 84.7263 55.4049 84.9945 55.2128C85.0845 55.1167 85.2026 55.0687 85.3527 55.0687C85.5028 55.0687 85.6069 55.1067 85.667 55.1847C85.8331 55.3689 85.8331 55.563 85.667 55.7672C85.2366 56.1615 84.7103 56.3576 84.0858 56.3536C83.4613 56.3516 82.939 56.1314 82.5186 55.6951C82.0983 55.2588 81.8842 54.7344 81.8782 54.118C81.8842 53.5035 82.0983 52.9771 82.5186 52.5368C82.939 52.0985 83.4473 51.8783 84.0458 51.8783C84.6442 51.8783 85.1466 52.0745 85.5549 52.4647C85.9632 52.855 86.1873 53.3534 86.2214 53.9558V53.9999L86.2234 54.0059ZM84.0658 52.7349C83.7195 52.753 83.4413 52.861 83.2332 53.0572C83.025 53.2533 82.8989 53.4635 82.8569 53.6836H85.3908C85.3367 53.4755 85.1926 53.2713 84.9564 53.0752C84.7203 52.879 84.424 52.765 84.0658 52.7349Z" fill="white"></path><path d="M88.5712 56.3256C88.4691 56.2775 88.4111 56.2375 88.3971 56.2055C88.383 56.1735 88.371 56.1534 88.365 56.1474C88.347 56.1414 88.331 56.1174 88.321 56.0754L86.8699 52.6008C86.8159 52.4807 86.8139 52.3627 86.8659 52.2466C86.916 52.1305 87.004 52.0444 87.1301 51.9924C87.2382 51.9383 87.3503 51.9383 87.4704 51.9924C87.5905 52.0464 87.6765 52.1325 87.7306 52.2526L88.7613 54.6884L89.8001 52.2526C89.8481 52.1325 89.9302 52.0464 90.0463 51.9924C90.1623 51.9383 90.2824 51.9383 90.4045 51.9924C90.5266 52.0464 90.6127 52.1305 90.6647 52.2466C90.7148 52.3627 90.7148 52.4807 90.6607 52.6008L89.1916 56.0754C89.1796 56.1054 89.1676 56.1254 89.1556 56.1374C89.1436 56.1494 89.1316 56.1634 89.1196 56.1775C89.1076 56.1915 89.0876 56.2115 89.0615 56.2355C89.0355 56.2595 89.0155 56.2795 89.0035 56.2935C88.9915 56.3076 88.9775 56.3196 88.9595 56.3256H88.9415V56.3336C88.9174 56.3336 88.8934 56.3396 88.8694 56.3516H88.8514C88.8274 56.3576 88.7994 56.3596 88.7673 56.3596C88.7353 56.3596 88.7053 56.3556 88.6833 56.3516H88.6653C88.6292 56.3396 88.6052 56.3336 88.5932 56.3336V56.3256H88.5752H88.5712Z" fill="white"></path><path d="M95.8325 54.0059C95.8325 54.138 95.7885 54.244 95.7024 54.3241C95.6163 54.4042 95.5002 54.4442 95.3581 54.4442H92.5101C92.5641 54.7004 92.6642 54.8985 92.8143 55.0346C93.0044 55.2548 93.2846 55.3889 93.6509 55.4329C94.0172 55.4769 94.3354 55.4049 94.6036 55.2128C94.6937 55.1167 94.8117 55.0687 94.9618 55.0687C95.112 55.0687 95.216 55.1067 95.2761 55.1847C95.4422 55.3689 95.4422 55.563 95.2761 55.7672C94.8458 56.1615 94.3194 56.3576 93.6949 56.3536C93.0705 56.3516 92.5481 56.1314 92.1278 55.6951C91.7075 55.2588 91.4933 54.7344 91.4873 54.118C91.4933 53.5035 91.7075 52.9771 92.1278 52.5368C92.5481 52.0985 93.0585 51.8783 93.6549 51.8783C94.2513 51.8783 94.7557 52.0745 95.164 52.4647C95.5723 52.855 95.7945 53.3534 95.8305 53.9558V53.9999L95.8325 54.0059ZM93.6749 52.7349C93.3287 52.753 93.0504 52.861 92.8423 53.0572C92.6341 53.2533 92.5081 53.4635 92.466 53.6836H94.9999C94.9458 53.4755 94.8017 53.2713 94.5656 53.0752C94.3294 52.879 94.0332 52.765 93.6749 52.7349Z" fill="white"></path><path d="M97.6957 52.4207C97.8338 52.2586 98.022 52.1285 98.2601 52.0304C98.4983 51.9324 98.7165 51.8843 98.9146 51.8883C99.1107 51.8923 99.2569 51.9384 99.3489 52.0264C99.441 52.1165 99.487 52.2246 99.487 52.3527C99.487 52.4808 99.441 52.5928 99.3489 52.6889C99.2569 52.785 99.1448 52.833 99.0127 52.833C98.4563 52.833 98.0179 53.2833 97.6957 54.186V55.8873C97.6957 56.0194 97.6477 56.1314 97.5516 56.2235C97.4555 56.3156 97.3414 56.3616 97.2074 56.3616C97.0733 56.3616 96.9592 56.3156 96.8671 56.2235C96.775 56.1314 96.729 56.0194 96.729 55.8873V52.3587C96.729 52.2286 96.775 52.1165 96.8671 52.0284C96.9592 51.9384 97.0733 51.8943 97.2074 51.8943C97.3414 51.8943 97.4575 51.9384 97.5516 52.0284C97.6477 52.1185 97.6957 52.2286 97.6957 52.3587V52.4207Z" fill="white"></path><path d="M101.098 55.8873C101.098 56.0194 101.048 56.1314 100.946 56.2235C100.844 56.3156 100.73 56.3616 100.602 56.3616C100.474 56.3616 100.364 56.3156 100.272 56.2235C100.18 56.1314 100.134 56.0194 100.134 55.8873V52.3587C100.134 52.2286 100.18 52.1145 100.272 52.0224C100.364 51.9304 100.476 51.8843 100.608 51.8843C100.81 51.8843 100.956 51.9764 101.046 52.1625C101.338 51.9784 101.655 51.8843 101.995 51.8843C102.515 51.8843 102.956 52.0685 103.32 52.4347C103.684 52.801 103.866 53.2393 103.866 53.7477V55.8873C103.866 56.0194 103.822 56.1314 103.732 56.2235C103.642 56.3156 103.534 56.3616 103.406 56.3616C103.278 56.3616 103.166 56.3156 103.07 56.2235C102.974 56.1314 102.928 56.0194 102.928 55.8873V53.7477C102.928 53.4975 102.836 53.2833 102.655 53.1072C102.473 52.9311 102.255 52.843 102.001 52.843C101.747 52.843 101.535 52.9311 101.36 53.1072C101.188 53.2833 101.1 53.4975 101.1 53.7477V55.8873H101.098Z" fill="white"></path><path d="M109.122 54.0059C109.122 54.138 109.078 54.244 108.992 54.3241C108.906 54.4042 108.79 54.4442 108.648 54.4442H105.8C105.854 54.7004 105.954 54.8985 106.104 55.0346C106.294 55.2548 106.574 55.3889 106.94 55.4329C107.309 55.4769 107.625 55.4049 107.893 55.2128C107.983 55.1167 108.101 55.0687 108.251 55.0687C108.402 55.0687 108.506 55.1067 108.566 55.1847C108.732 55.3689 108.732 55.563 108.566 55.7672C108.135 56.1615 107.609 56.3576 106.984 56.3536C106.36 56.3516 105.838 56.1314 105.417 55.6951C104.997 55.2588 104.783 54.7344 104.777 54.118C104.783 53.5035 104.997 52.9771 105.417 52.5368C105.838 52.0985 106.348 51.8783 106.944 51.8783C107.541 51.8783 108.045 52.0745 108.454 52.4647C108.862 52.855 109.084 53.3534 109.12 53.9558V53.9999L109.122 54.0059ZM106.964 52.7349C106.618 52.753 106.34 52.861 106.132 53.0572C105.924 53.2533 105.798 53.4635 105.756 53.6836H108.289C108.235 53.4755 108.091 53.2713 107.855 53.0752C107.619 52.879 107.323 52.765 106.964 52.7349Z" fill="white"></path><path d="M113.868 53.6876C113.768 53.6876 113.668 53.6496 113.592 53.5716C113.443 53.4194 113.445 53.1753 113.6 53.0272L114.122 52.5168C114.122 52.5168 114.126 52.5128 114.128 52.5108L114.186 52.4567C114.186 52.4567 114.19 52.4527 114.192 52.4507C114.608 52.0785 115.149 51.8743 115.713 51.8743C115.913 51.8743 116.111 51.9003 116.304 51.9504C116.51 52.0044 116.632 52.2166 116.578 52.4207C116.524 52.6269 116.312 52.749 116.107 52.6949C115.979 52.6609 115.847 52.6449 115.713 52.6449C115.341 52.6449 114.983 52.779 114.708 53.0232L114.656 53.0712L114.138 53.5776C114.064 53.6516 113.966 53.6876 113.87 53.6876" fill="white"></path><path d="M116.578 55.7752C116.524 55.569 116.312 55.4469 116.107 55.501C115.979 55.535 115.847 55.551 115.713 55.551C115.341 55.551 114.985 55.4169 114.708 55.1727L113.86 54.3261L112.809 53.2773L112.016 52.4868C112.016 52.4868 112 52.4707 111.992 52.4627C111.572 52.0825 111.028 51.8723 110.457 51.8723C110.255 51.8723 110.053 51.8983 109.859 51.9504C109.653 52.0064 109.531 52.2166 109.587 52.4227C109.643 52.6289 109.853 52.751 110.059 52.6949C110.187 52.6609 110.321 52.6429 110.457 52.6429C110.832 52.6429 111.19 52.777 111.464 53.0232L112.265 53.8217L113.315 54.8705L114.172 55.7231C114.172 55.7231 114.182 55.7331 114.188 55.7371C114.606 56.1114 115.147 56.3176 115.713 56.3176C115.913 56.3176 116.111 56.2916 116.304 56.2415C116.51 56.1875 116.632 55.9753 116.578 55.7712" fill="#95C122"></path><path d="M110.465 56.3216C110.259 56.3216 110.055 56.2936 109.857 56.2395C109.653 56.1835 109.531 55.9713 109.587 55.7672C109.643 55.561 109.855 55.4409 110.059 55.497C110.191 55.533 110.325 55.551 110.463 55.551C110.836 55.551 111.194 55.4169 111.47 55.1727L111.522 55.1247L112.042 54.6183C112.195 54.4702 112.439 54.4722 112.587 54.6263C112.735 54.7784 112.733 55.0226 112.579 55.1707L112.056 55.6791C112.056 55.6791 112.052 55.6831 112.05 55.6851L111.992 55.7392C111.992 55.7392 111.988 55.7432 111.986 55.7452C111.57 56.1174 111.03 56.3216 110.465 56.3216Z" fill="white"></path><path d="M73.9043 54.13C74.0183 53.9078 74.1745 53.7377 74.3706 53.6176C74.5667 53.4975 74.7869 53.4375 75.0291 53.4375C75.2412 53.4375 75.4254 53.4795 75.5855 53.5656C75.7436 53.6516 75.8717 53.7577 75.9678 53.8878V53.4835H76.6903V56.3216H75.9678V55.9073C75.8757 56.0414 75.7476 56.1514 75.5855 56.2375C75.4234 56.3256 75.2372 56.3676 75.0251 56.3676C74.7869 56.3676 74.5687 56.3056 74.3726 56.1835C74.1765 56.0614 74.0203 55.8872 73.9063 55.6631C73.7922 55.4389 73.7341 55.1827 73.7341 54.8925C73.7341 54.6023 73.7922 54.3521 73.9063 54.13H73.9043ZM75.8637 54.4542C75.7956 54.3301 75.7036 54.234 75.5875 54.168C75.4714 54.1019 75.3473 54.0679 75.2132 54.0679C75.0791 54.0679 74.957 54.0999 74.8449 54.166C74.7329 54.23 74.6408 54.3261 74.5707 54.4502C74.5007 54.5743 74.4667 54.7224 74.4667 54.8925C74.4667 55.0626 74.5007 55.2128 74.5707 55.3409C74.6408 55.4689 74.7329 55.567 74.8469 55.6351C74.961 55.7031 75.0831 55.7371 75.2132 55.7371C75.3433 55.7371 75.4714 55.7031 75.5875 55.6371C75.7036 55.571 75.7956 55.4749 75.8637 55.3509C75.9317 55.2268 75.9658 55.0767 75.9658 54.9025C75.9658 54.7284 75.9317 54.5783 75.8637 54.4542Z" fill="white"></path><path d="M79.7826 53.7637C79.9907 53.9779 80.0948 54.2761 80.0948 54.6584V56.3236H79.3783V54.7564C79.3783 54.5303 79.3222 54.3581 79.2102 54.236C79.0981 54.114 78.944 54.0539 78.7498 54.0539C78.5557 54.0539 78.3956 54.114 78.2815 54.236C78.1674 54.3581 78.1094 54.5303 78.1094 54.7564V56.3236H77.3928V53.4855H78.1094V53.8398C78.2054 53.7177 78.3275 53.6196 78.4756 53.5495C78.6237 53.4795 78.7878 53.4455 78.964 53.4455C79.3022 53.4455 79.5744 53.5515 79.7826 53.7657V53.7637Z" fill="white"></path><path d="M118.809 54.4122C118.915 54.216 119.063 54.0639 119.252 53.9558C119.44 53.8478 119.656 53.7937 119.9 53.7937C120.212 53.7937 120.473 53.8718 120.677 54.0279C120.883 54.184 121.019 54.4042 121.089 54.6864H120.4C120.364 54.5763 120.302 54.4902 120.216 54.4282C120.13 54.3661 120.022 54.3341 119.894 54.3341C119.712 54.3341 119.568 54.4002 119.462 54.5323C119.356 54.6644 119.302 54.8525 119.302 55.0947C119.302 55.3368 119.356 55.521 119.462 55.6531C119.568 55.7852 119.712 55.8512 119.894 55.8512C120.152 55.8512 120.32 55.7351 120.4 55.505H121.089C121.019 55.7792 120.881 55.9953 120.675 56.1574C120.469 56.3196 120.21 56.3996 119.9 56.3996C119.656 56.3996 119.442 56.3456 119.252 56.2375C119.061 56.1294 118.915 55.9773 118.809 55.7812C118.703 55.585 118.649 55.3569 118.649 55.0947C118.649 54.8325 118.703 54.6043 118.809 54.4082V54.4122Z" fill="white"></path><path d="M122.024 56.2415C121.829 56.1334 121.675 55.9813 121.565 55.7832C121.453 55.585 121.399 55.3569 121.399 55.0987C121.399 54.8405 121.455 54.6123 121.569 54.4142C121.683 54.216 121.839 54.0639 122.038 53.9558C122.236 53.8478 122.456 53.7937 122.698 53.7937C122.94 53.7937 123.162 53.8478 123.359 53.9558C123.557 54.0639 123.713 54.216 123.827 54.4142C123.941 54.6123 123.997 54.8405 123.997 55.0987C123.997 55.3569 123.939 55.585 123.821 55.7832C123.703 55.9813 123.547 56.1334 123.347 56.2415C123.146 56.3496 122.924 56.4036 122.678 56.4036C122.432 56.4036 122.216 56.3496 122.022 56.2415H122.024ZM123.006 55.7612C123.108 55.7051 123.19 55.6211 123.251 55.509C123.311 55.3969 123.343 55.2588 123.343 55.0987C123.343 54.8585 123.279 54.6744 123.152 54.5443C123.026 54.4142 122.872 54.3501 122.69 54.3501C122.508 54.3501 122.356 54.4142 122.232 54.5443C122.108 54.6744 122.048 54.8585 122.048 55.0987C122.048 55.3389 122.108 55.523 122.228 55.6531C122.348 55.7832 122.5 55.8472 122.682 55.8472C122.798 55.8472 122.906 55.8192 123.008 55.7632L123.006 55.7612Z" fill="white"></path><path d="M128.356 54.0839C128.546 54.2741 128.641 54.5383 128.641 54.8805V56.3636H128.002V54.9686C128.002 54.7704 127.952 54.6203 127.852 54.5142C127.752 54.4102 127.614 54.3561 127.442 54.3561C127.27 54.3561 127.131 54.4082 127.029 54.5142C126.927 54.6183 126.877 54.7704 126.877 54.9686V56.3636H126.239V54.9686C126.239 54.7704 126.189 54.6203 126.089 54.5142C125.989 54.4102 125.85 54.3561 125.678 54.3561C125.506 54.3561 125.362 54.4082 125.26 54.5142C125.158 54.6183 125.108 54.7704 125.108 54.9686V56.3636H124.469V53.8378H125.108V54.144C125.19 54.0379 125.296 53.9538 125.424 53.8938C125.554 53.8337 125.696 53.8017 125.85 53.8017C126.049 53.8017 126.225 53.8438 126.379 53.9278C126.535 54.0119 126.653 54.13 126.739 54.2861C126.821 54.14 126.941 54.0239 127.097 53.9358C127.254 53.8478 127.424 53.8037 127.606 53.8037C127.916 53.8037 128.166 53.8998 128.356 54.0879V54.0839Z" fill="white"></path><path d="M130.226 53.9098C130.37 53.8317 130.536 53.7937 130.72 53.7937C130.936 53.7937 131.13 53.8478 131.306 53.9538C131.48 54.0599 131.619 54.212 131.721 54.4082C131.823 54.6043 131.873 54.8325 131.873 55.0907C131.873 55.3489 131.821 55.579 131.721 55.7772C131.619 55.9773 131.48 56.1314 131.306 56.2395C131.132 56.3496 130.936 56.4036 130.72 56.4036C130.534 56.4036 130.372 56.3656 130.23 56.2895C130.087 56.2135 129.973 56.1174 129.885 56.0013V57.5665H129.247V53.8358H129.885V54.2C129.967 54.0839 130.081 53.9879 130.226 53.9098ZM131.128 54.6944C131.066 54.5843 130.984 54.4982 130.882 54.4422C130.78 54.3842 130.67 54.3561 130.552 54.3561C130.434 54.3561 130.328 54.3862 130.226 54.4442C130.123 54.5042 130.041 54.5903 129.979 54.7024C129.917 54.8145 129.885 54.9466 129.885 55.0987C129.885 55.2508 129.915 55.3829 129.979 55.495C130.043 55.607 130.123 55.6931 130.226 55.7532C130.328 55.8132 130.436 55.8412 130.552 55.8412C130.668 55.8412 130.78 55.8112 130.882 55.7492C130.984 55.6891 131.066 55.601 131.128 55.489C131.19 55.3769 131.222 55.2428 131.222 55.0867C131.222 54.9306 131.19 54.8025 131.128 54.6924V54.6944Z" fill="white"></path><path d="M132.327 54.4102C132.429 54.212 132.567 54.0599 132.741 53.9538C132.916 53.8478 133.112 53.7937 133.328 53.7937C133.516 53.7937 133.682 53.8317 133.822 53.9078C133.964 53.9839 134.076 54.0799 134.163 54.196V53.8358H134.805V56.3616H134.163V55.9913C134.08 56.1094 133.966 56.2075 133.822 56.2855C133.678 56.3636 133.512 56.4016 133.324 56.4016C133.112 56.4016 132.918 56.3476 132.741 56.2375C132.567 56.1274 132.429 55.9733 132.327 55.7752C132.225 55.577 132.175 55.3469 132.175 55.0887C132.175 54.8305 132.225 54.6063 132.327 54.4102ZM134.072 54.6984C134.012 54.5863 133.93 54.5022 133.826 54.4422C133.722 54.3822 133.612 54.3541 133.494 54.3541C133.376 54.3541 133.266 54.3842 133.166 54.4402C133.066 54.4962 132.984 54.5823 132.922 54.6924C132.86 54.8045 132.828 54.9346 132.828 55.0867C132.828 55.2388 132.86 55.3709 132.922 55.485C132.984 55.599 133.066 55.6871 133.168 55.7472C133.27 55.8072 133.378 55.8392 133.494 55.8392C133.61 55.8392 133.724 55.8092 133.826 55.7512C133.93 55.6911 134.012 55.607 134.072 55.495C134.132 55.3829 134.165 55.2508 134.165 55.0967C134.165 54.9426 134.134 54.8085 134.072 54.6984Z" fill="white"></path><path d="M137.561 54.0839C137.747 54.2741 137.839 54.5383 137.839 54.8805V56.3636H137.201V54.9686C137.201 54.7684 137.151 54.6143 137.051 54.5062C136.951 54.3982 136.812 54.3441 136.64 54.3441C136.468 54.3441 136.324 54.3982 136.222 54.5062C136.12 54.6143 136.07 54.7684 136.07 54.9686V56.3636H135.431V53.8377H136.07V54.152C136.154 54.0419 136.264 53.9558 136.396 53.8938C136.528 53.8317 136.674 53.7997 136.832 53.7997C137.133 53.7997 137.377 53.8958 137.563 54.0839H137.561Z" fill="white"></path><path d="M140.864 53.8358L139.298 57.5565H138.62L139.166 56.2976L138.154 53.8358H138.87L139.523 55.601L140.183 53.8358H140.862H140.864Z" fill="white"></path></svg>